<svg width="251" height="231" viewBox="0 0 251 231" fill="none" xmlns="http://www.w3.org/2000/svg">
    <path d="M36.7639 209.599C-12.2383 181.307 -12.2383 135.432 36.7639 107.161C85.7661 78.8905 165.218 78.8688 214.236 107.161C263.255 135.454 263.239 181.328 214.236 209.599C165.234 237.87 85.7715 237.897 36.7639 209.599Z" fill="#F5F5F5"/>
    <path d="M75.9829 210.965C97.2479 210.965 114.487 201.013 114.487 188.738C114.487 176.462 97.2479 166.51 75.9829 166.51C54.7179 166.51 37.4792 176.462 37.4792 188.738C37.4792 201.013 54.7179 210.965 75.9829 210.965Z" fill="#E0E0E0"/>
    <path d="M164.976 178.349C191.675 163.949 207.51 141.505 200.344 128.218C193.178 114.932 165.725 115.835 139.026 130.235C112.327 144.635 96.4918 167.079 103.658 180.366C110.824 193.652 138.277 192.749 164.976 178.349Z" fill="#E0E0E0"/>
    <path d="M191.543 146.787C196.881 140.424 205.244 136.277 214.648 133.828C223.938 131.416 225.602 125.698 219.445 123.849C212.469 121.746 203.765 125.605 198.15 130.977C188.372 140.337 187.142 147.486 187.142 147.486L191.543 146.787Z" fill="#336699"/>
    <path opacity="0.15" d="M191.543 146.787C196.881 140.424 205.244 136.277 214.648 133.828C223.938 131.416 225.602 125.698 219.445 123.849C212.469 121.746 203.765 125.605 198.15 130.977C188.372 140.337 187.142 147.486 187.142 147.486L191.543 146.787Z" fill="black"/>
    <path d="M188.795 146.402C188.755 146.41 188.715 146.41 188.675 146.402C188.643 146.386 188.615 146.365 188.591 146.338C188.567 146.311 188.549 146.28 188.538 146.246C188.526 146.213 188.521 146.177 188.523 146.141C188.526 146.106 188.535 146.071 188.551 146.039C196.475 129.779 214.025 125.779 218.274 126.082C218.345 126.088 218.411 126.121 218.458 126.175C218.504 126.229 218.528 126.299 218.523 126.37C218.516 126.441 218.482 126.507 218.427 126.554C218.373 126.6 218.302 126.623 218.231 126.619C214.068 126.305 196.838 130.267 189.039 146.277C189.012 146.317 188.975 146.349 188.933 146.371C188.89 146.393 188.843 146.404 188.795 146.402Z" fill="white"/>
    <path d="M187.142 148.478C187.142 148.739 187.212 148.996 187.343 149.222C187.475 149.448 187.664 149.634 187.892 149.763C188.119 149.892 188.377 149.958 188.638 149.955C188.9 149.952 189.156 149.88 189.38 149.746C194.345 146.857 201.586 145.258 213.304 148.597C219.537 150.369 222.605 149.182 223.916 146.646C225.38 143.828 222.29 141.101 218.767 139.817C206.773 135.432 195.949 138.424 187.142 147.172V148.478Z" fill="#336699"/>
    <path d="M187.83 148.711C187.791 148.712 187.753 148.704 187.718 148.689C187.682 148.674 187.65 148.652 187.624 148.624C187.574 148.573 187.546 148.504 187.546 148.432C187.546 148.36 187.574 148.291 187.624 148.239C197.981 138.982 214.025 140.787 220.095 144.397C220.157 144.433 220.201 144.492 220.22 144.561C220.238 144.63 220.228 144.703 220.193 144.765C220.155 144.827 220.095 144.872 220.026 144.89C219.956 144.908 219.881 144.898 219.819 144.863C213.857 141.323 198.139 139.562 187.987 148.657C187.941 148.69 187.886 148.708 187.83 148.711Z" fill="white"/>
    <path d="M71.2565 170.06C66.7037 163.112 58.888 158.006 49.8366 154.467C40.9045 150.976 39.9234 145.107 46.254 143.99C53.4301 142.727 61.6197 147.589 66.5627 153.583C75.1697 164.033 75.5437 171.291 75.5437 171.291L71.2565 170.06Z" fill="#336699"/>
    <path opacity="0.15" d="M71.2565 170.06C66.7037 163.112 58.888 158.006 49.8366 154.467C40.9045 150.976 39.9234 145.107 46.254 143.99C53.4301 142.727 61.6197 147.589 66.5627 153.583C75.1697 164.033 75.5437 171.291 75.5437 171.291L71.2565 170.06Z" fill="black"/>
    <path d="M74.01 170.017C74.0494 170.025 74.0899 170.025 74.1293 170.017C74.1969 169.992 74.2523 169.942 74.2837 169.878C74.3151 169.813 74.32 169.738 74.2973 169.67C68.3353 152.592 51.4032 146.548 47.1323 146.364C47.0613 146.361 46.9919 146.386 46.9392 146.434C46.8865 146.481 46.8546 146.548 46.8504 146.619C46.8488 146.691 46.8749 146.761 46.9233 146.814C46.9717 146.868 47.0387 146.9 47.1106 146.906C51.284 147.079 67.9234 153.047 73.7824 169.865C73.8035 169.908 73.8357 169.945 73.8757 169.972C73.9157 169.998 73.9621 170.014 74.01 170.017Z" fill="white"/>
    <path d="M75.5817 170.96C75.5392 171.345 75.3982 171.713 75.1722 172.028C74.9462 172.342 74.6429 172.594 74.2915 172.757C73.9401 172.921 73.5526 172.991 73.1662 172.961C72.7799 172.931 72.4078 172.802 72.0858 172.586C67.4897 169.507 60.6442 167.507 49.4302 169.334C43.0346 170.358 40.1295 168.792 39.1322 166.142C38.0157 163.171 41.4086 160.835 45.0563 159.974C57.4843 157.036 67.8799 161.285 75.5926 171.003L75.5817 170.96Z" fill="#336699"/>
    <path d="M74.7254 172.418C74.7632 172.423 74.8018 172.42 74.8383 172.409C74.8749 172.398 74.9085 172.379 74.9368 172.353C74.9868 172.301 75.0147 172.232 75.0147 172.161C75.0147 172.089 74.9868 172.02 74.9368 171.968C65.7228 161.556 49.5983 161.453 43.1431 164.321C43.0769 164.35 43.0252 164.405 42.9993 164.472C42.9734 164.54 42.9754 164.615 43.0048 164.681C43.0343 164.747 43.0888 164.799 43.1564 164.825C43.224 164.851 43.2991 164.849 43.3653 164.819C49.6904 162.006 65.5168 162.109 74.5303 172.326C74.5538 172.355 74.5836 172.378 74.6173 172.394C74.6511 172.41 74.688 172.418 74.7254 172.418Z" fill="white"/>
    <path d="M196.404 46.2241L196.318 46.1808L175.657 34.2893L175.532 34.2297C165.879 29.3517 153.001 30.8205 139.147 39.7743C111.321 57.7687 90.1181 99.1884 91.7875 132.288C92.6168 148.781 98.9798 160.093 108.589 165.068L108.671 165.112L129.337 177.009L129.435 177.063C139.088 181.941 151.977 180.494 165.841 171.529C193.667 153.535 214.87 112.115 213.201 79.0151C212.382 62.5112 206.019 51.1997 196.404 46.2241Z" fill="#37474F"/>
    <path d="M128.627 176.624L108.698 165.101L108.6 165.041C98.9908 160.055 92.6331 148.743 91.7984 132.272C91.0559 117.508 94.8661 101.102 101.771 85.866L101.907 85.53L122.438 97.7575C115.522 112.993 111.722 129.399 112.465 144.164C113.251 160.31 119.359 171.486 128.627 176.624Z" fill="#263238"/>
    <path d="M165.852 171.518C193.678 153.524 214.881 112.104 213.212 79.0043C211.542 45.9043 187.629 33.666 159.803 51.6604C131.977 69.6548 110.768 111.074 112.438 144.169C114.107 177.263 138.025 189.513 165.852 171.518Z" fill="#455A64"/>
    <path d="M189.418 43.655L154.54 115.508L147.033 107.378C144.795 105.048 141.732 103.688 138.502 103.591C135.273 103.494 132.134 104.668 129.76 106.86C127.386 109.052 125.967 112.088 125.806 115.315C125.646 118.543 126.758 121.704 128.904 124.12L148.681 145.546C150.856 147.908 153.87 149.325 157.077 149.491C157.304 149.491 157.532 149.491 157.76 149.491C158.358 149.491 158.956 149.447 159.548 149.361C161.539 149.071 163.429 148.299 165.052 147.11C166.675 145.921 167.982 144.353 168.86 142.543L208.859 60.1589C204.756 51.01 197.927 45.3406 189.418 43.655Z" fill="#37474F"/>
    <path d="M217.743 19.9914C217.526 19.8667 217.298 19.7475 217.071 19.6391C214.514 18.4003 211.571 18.2262 208.887 19.1549C206.202 20.0837 203.996 22.0394 202.751 24.5929L158.372 116.007L155.846 113.297C155.117 112.5 154.269 111.822 153.332 111.286C152.009 110.527 146.383 107.27 145.473 106.744C143.253 105.46 140.647 105.014 138.127 105.488C135.607 105.962 133.341 107.323 131.739 109.326C130.137 111.328 129.307 113.838 129.398 116.401C129.49 118.963 130.497 121.408 132.237 123.291L152.015 144.711C152.756 145.516 153.617 146.201 154.567 146.743C155.857 147.475 161.462 150.727 162.383 151.258C163.657 151.996 165.07 152.464 166.534 152.631C167.997 152.799 169.479 152.663 170.887 152.232C172.295 151.801 173.6 151.085 174.719 150.128C175.838 149.17 176.747 147.992 177.391 146.668L229.895 38.5223C231.075 36.085 231.29 33.2914 230.497 30.7019C229.704 28.1125 227.961 25.9186 225.618 24.5604L217.743 19.9914Z" fill="#336699"/>
    <path opacity="0.15" d="M217.743 19.9914C217.526 19.8667 217.298 19.7475 217.071 19.6391C214.514 18.4003 211.571 18.2262 208.887 19.1549C206.202 20.0837 203.996 22.0394 202.751 24.5929L158.372 116.007L155.846 113.297C155.117 112.5 154.269 111.822 153.332 111.286C152.009 110.527 146.383 107.27 145.473 106.744C143.253 105.46 140.647 105.014 138.127 105.488C135.607 105.962 133.341 107.323 131.739 109.326C130.137 111.328 129.307 113.838 129.398 116.401C129.49 118.963 130.497 121.408 132.237 123.291L152.015 144.711C152.756 145.516 153.617 146.201 154.567 146.743C155.857 147.475 161.462 150.727 162.383 151.258C163.657 151.996 165.07 152.464 166.534 152.631C167.997 152.799 169.479 152.663 170.887 152.232C172.295 151.801 173.6 151.085 174.719 150.128C175.838 149.17 176.747 147.992 177.391 146.668L229.895 38.5223C231.075 36.085 231.29 33.2914 230.497 30.7019C229.704 28.1125 227.961 25.9186 225.618 24.5604L217.743 19.9914Z" fill="black"/>
    <path opacity="0.15" d="M162.356 151.237C161.445 150.695 155.852 147.443 154.546 146.722C153.596 146.179 152.735 145.494 151.993 144.689L132.215 123.27C131.343 122.318 130.651 121.216 130.172 120.018L138.036 124.554C138.513 125.756 139.21 126.859 140.09 127.806L159.863 149.226C160.59 150.015 161.43 150.693 162.356 151.237Z" fill="black"/>
    <path opacity="0.15" d="M213.103 25.8395C212.07 26.7667 211.227 27.8859 210.621 29.1349L164.974 123.161L158.372 116.007L202.751 24.5929C203.356 23.3417 204.201 22.222 205.239 21.2975L213.103 25.8395Z" fill="black"/>
    <path d="M224.941 24.181C222.384 22.9453 219.442 22.7727 216.758 23.7011C214.074 24.6296 211.868 26.5834 210.621 29.1349L164.974 123.161L155.852 113.275C153.9 111.292 151.253 110.147 148.471 110.081C145.689 110.016 142.991 111.036 140.948 112.926C138.905 114.815 137.678 117.425 137.526 120.204C137.374 122.982 138.309 125.711 140.134 127.811L159.906 149.237C161.09 150.517 162.568 151.489 164.213 152.069C165.857 152.649 167.618 152.818 169.343 152.563C171.068 152.308 172.705 151.635 174.111 150.604C175.517 149.573 176.651 148.214 177.413 146.646L229.916 38.5007C231.154 35.9417 231.324 32.9962 230.392 30.3113C229.459 27.6264 227.498 25.4215 224.941 24.181Z" fill="#336699"/>
    <path d="M75.2185 34.7499C71.0831 34.7499 68.2538 35.8339 65.3162 40.0073C62.6062 43.8447 55.2133 56.6359 55.2133 56.6359C55.2133 56.6359 49.7933 45.5141 49.2513 43.2973C48.7093 41.0805 48.7418 40.0941 49.2513 39.1293C49.9973 37.989 50.4651 36.6894 50.6171 35.3353C50.8285 32.6687 51.4789 30.3868 50.8827 30.311C49.2296 30.2188 49.1646 32.3435 48.2974 33.5955C48.1872 33.7163 48.0501 33.8095 47.8973 33.8675C47.7444 33.9255 47.5799 33.9467 47.4173 33.9292C47.2548 33.9118 47.0986 33.8563 46.9614 33.7673C46.8243 33.6782 46.7101 33.5581 46.628 33.4166C46.2649 32.6741 46.46 31.4546 46.2866 30.5765C46.3335 30.0879 46.4114 29.6028 46.5196 29.124C47.1457 29.2366 47.7851 29.2549 48.4166 29.1782C49.1321 30.3001 49.6199 30.7717 50.6171 30.3164C50.7472 30.1104 50.189 28.6904 49.5331 27.6064C49.4347 27.4405 49.2751 27.3199 49.0887 27.2703C47.8863 26.9658 46.6315 26.9307 45.4139 27.1674C45.3219 27.1768 45.2327 27.2047 45.1517 27.2494C45.0706 27.2941 44.9995 27.3547 44.9424 27.4275C44.4848 28.0979 44.1202 28.8272 43.8584 29.5955C43.7879 29.8286 43.5711 29.8232 43.5169 29.6226C42.9749 27.0048 42.9749 23.2866 42.9749 21.5468C42.9749 20.1756 40.975 19.9588 40.9045 21.9208C40.7857 24.5534 40.8309 27.1908 41.04 29.8177C41.04 30.0562 40.8015 30.17 40.704 29.9099C40.3571 28.9831 39.5061 26.1809 39.1484 21.3463C39.0509 20.0455 36.9479 19.8341 36.9804 21.6606C37.0628 24.899 37.4843 28.1198 38.2379 31.2703C38.3029 31.4979 38.0915 31.6985 37.9343 31.4383C36.9477 29.537 36.1594 27.5391 35.5821 25.4763C35.1322 23.9045 33.0347 24.3056 33.4141 26.2622C34.0699 29.769 35.1105 34.2025 36.6661 37.3732C38.3246 40.7607 39.7555 42.4572 40.5793 45.1184C41.4031 47.7796 44.8123 62.8526 48.46 68.7279C51.3163 73.3349 54.5846 72.9067 58.1022 70.4786C61.6197 68.0504 74.1887 50.5384 74.1887 50.5384L75.2185 34.7499Z" fill="#9E6767"/>
    <path d="M55.2134 56.6305C55.2134 56.6305 56.9749 59.6169 57.2459 62.0071C57.6936 59.6863 57.2484 57.282 55.9993 55.2755L55.2134 56.6305Z" fill="#874C4C"/>
    <path d="M76.0967 34.75C73.9937 34.5332 71.3758 34.4627 68.4599 36.3001C65.5439 38.1375 64.525 40.6957 63.1103 42.9342C61.6957 45.1726 56.8069 53.1021 56.8069 53.1021C56.8069 53.1021 58.6009 60.6305 65.7336 62.1806L76.4165 47.6875L76.0967 34.75Z" fill="#455A64"/>
    <path d="M85.6738 167.123C86.2158 167.052 86.9366 168.9 86.9475 169.502C86.9583 170.104 86.3513 171.399 85.5545 172.613C84.4896 174.058 83.6067 175.629 82.9258 177.291C82.3134 178.96 81.7497 180.055 80.0424 182.239C78.1454 184.673 73.6901 188.743 66.926 186.976C65.2729 186.543 64.449 186.022 63.8474 185.421C63.5835 185.154 63.3994 184.819 63.3161 184.453C63.2327 184.087 63.2535 183.705 63.3759 183.35L85.6738 167.123Z" fill="#263238"/>
    <path d="M72.3839 165.009V165.068C72.3063 165.574 72.321 166.09 72.4272 166.591C72.6131 168.084 72.4808 169.599 72.0389 171.037C71.5971 172.474 70.8557 173.802 69.8636 174.933C68.9213 175.916 67.8577 176.776 66.6983 177.491C63.2728 179.659 62.9043 181.139 63.3867 183.35C64.5357 185.925 72.3026 187.491 76.7686 183.659C78.6957 182.163 80.1688 180.161 81.0233 177.876C81.6715 176.239 82.4246 174.646 83.2781 173.106C84.1398 171.48 85.7767 169.648 85.8255 167.973C85.8526 167.052 84.942 165.339 84.0585 163.93C83.2455 162.635 82.4054 161.404 81.6737 161.545L81.8797 162.277C81.2672 162.911 80.3838 163.15 79.8526 163.903C79.1914 164.819 79.2131 166.071 78.8066 167.101C78.7933 167.154 78.7684 167.203 78.7337 167.245C78.699 167.288 78.6554 167.321 78.606 167.345C78.5488 167.354 78.49 167.345 78.4383 167.319C78.3865 167.293 78.3447 167.25 78.3188 167.198C78.2745 167.092 78.2542 166.977 78.2591 166.862L78.2104 165.285C78.2348 164.982 78.1544 164.68 77.9827 164.429C77.56 163.952 76.5193 164.006 75.9394 163.984C75.1588 163.99 74.379 164.037 73.6034 164.125C73.3345 164.099 73.0651 164.17 72.8446 164.326C72.623 164.499 72.4618 164.738 72.3839 165.009Z" fill="#37474F"/>
    <path d="M60.9042 133.497C62.709 139.432 71.148 159.979 71.652 161.215L73.3322 165.291C74.4387 165.654 75.6242 165.705 76.7577 165.437C76.9365 167.404 77.2346 170.488 77.3485 172.044C77.3918 173.849 77.549 176.082 77.1588 177.865C76.8281 179.383 76.4433 180.976 76.1561 182.499C76.0314 183.171 75.9067 183.849 75.8038 184.526C75.6289 185.236 75.6878 185.983 75.9718 186.656C76.1447 186.95 76.3729 187.208 76.6439 187.415C77.8477 188.361 79.3692 188.807 80.8931 188.662C81.6989 188.623 82.4787 188.364 83.1479 187.914C84.4595 186.976 84.9202 185.345 85.5869 183.957C86.3131 182.456 86.0801 182.288 86.1289 180.678C86.1722 179.551 86.4866 176.689 86.9364 173.697C87.3863 170.705 89.3267 160.19 90.2589 149.714C90.6389 145.06 90.6389 140.383 90.2589 135.73C97.6626 115.616 100.958 103.654 101.928 96.9769C102.909 90.1911 102.438 87.7629 102.313 83.866L66.3079 84.7332C63.4245 103.345 58.4814 125.54 60.9042 133.497Z" fill="#9E6767"/>
    <path d="M60.3406 118.646C61.0831 111.806 66.1996 85.5137 66.1996 85.5137H102.47C102.47 85.5137 102.703 90.5598 102.638 92.8795C102.573 95.1993 101.825 99.4323 100.53 104.804C99.2345 110.175 94.4324 125.334 93.4839 127.568C92.5354 129.801 90.7739 136.277 90.7739 136.277C91.6627 148.44 89.3484 159.356 87.614 173.865C87.614 173.865 87.1099 175.822 81.9718 175.437C76.9745 175.058 75.9664 173.215 75.9664 173.215L75.6358 160.7C75.6358 160.7 72.9258 161.535 71.2998 161.155C71.2998 161.155 60.5628 134.646 60.0425 133.053C59.5221 131.459 59.598 125.486 60.3406 118.646Z" fill="#336699"/>
    <path opacity="0.45" d="M60.3406 118.646C61.0831 111.806 66.1996 85.5137 66.1996 85.5137H102.47C102.47 85.5137 102.703 90.5598 102.638 92.8795C102.573 95.1993 101.825 99.4323 100.53 104.804C99.2345 110.175 94.4324 125.334 93.4839 127.568C92.5354 129.801 90.7739 136.277 90.7739 136.277C91.6627 148.44 89.3484 159.356 87.614 173.865C87.614 173.865 87.1099 175.822 81.9718 175.437C76.9745 175.058 75.9664 173.215 75.9664 173.215L75.6358 160.7C75.6358 160.7 72.9258 161.535 71.2998 161.155C71.2998 161.155 60.5628 134.646 60.0425 133.053C59.5221 131.459 59.598 125.486 60.3406 118.646Z" fill="black"/>
    <path opacity="0.2" d="M75.7281 102.652C70.5899 98.0231 69.4463 94.3375 69.4463 94.3375C72.0296 97.2478 75.0884 99.6982 78.4923 101.584C78.4923 101.584 73.6143 127.34 73.972 132.635C74.3297 137.931 75.6359 160.7 75.6359 160.7C75.6359 160.917 72.178 136.619 72.075 134.684C71.8419 129.562 75.7281 102.652 75.7281 102.652Z" fill="black"/>
    <path d="M87.018 186.759C87.522 186.906 87.457 188.412 87.2293 188.976C86.6653 189.96 85.8665 190.788 84.9042 191.388C83.494 192.348 82.3177 193.614 81.4625 195.09C80.0708 197.218 78.2301 199.017 76.0696 200.358C73.1919 201.991 69.8001 202.466 66.5846 201.686C63.1808 200.721 62.8665 199.887 62.8936 198.602L87.018 186.759Z" fill="#263238"/>
    <path d="M76.503 178.879C75.6087 183.215 74.0531 186.402 70.4488 189.079C67.5762 191.214 65.495 192.298 63.2023 194.201C62.2321 195.014 62.1508 196.743 62.8934 198.607C64.4435 199.849 66.644 200.564 69.5979 200.559C72.9041 200.559 74.1724 199.968 76.0694 198.672C77.0012 198.035 77.8689 197.309 78.6601 196.504C80.2482 194.911 81.3701 192.943 82.4975 191.681C83.6249 190.418 86.1235 189.128 86.8335 187.605C87.2237 186.77 87.0611 184.835 86.801 183.187C86.5625 181.675 87.0232 179.019 86.2969 178.851L86.1939 179.935C86.1343 180.179 85.9826 180.304 85.4731 180.477C85.0152 180.577 84.5428 180.59 84.0801 180.515C83.9157 180.456 83.7368 180.449 83.5685 180.497C83.4003 180.545 83.2513 180.644 83.1425 180.781C82.6547 181.355 82.5246 182.168 81.8959 182.645C81.8552 182.681 81.8071 182.707 81.755 182.721C81.7308 182.735 81.7033 182.742 81.6756 182.741C81.6479 182.74 81.621 182.731 81.5978 182.716C81.581 182.69 81.5699 182.66 81.5652 182.629C81.5605 182.599 81.5624 182.567 81.5707 182.537L81.7495 180.911C81.7712 180.749 81.7712 180.585 81.7495 180.423C81.7155 180.272 81.6496 180.13 81.5561 180.007C81.4626 179.883 81.3437 179.781 81.2075 179.708C80.7511 179.442 80.2606 179.24 79.7496 179.106C79.2178 178.962 78.6732 178.869 78.1236 178.83C77.5842 178.761 77.0372 178.777 76.503 178.879Z" fill="#455A64"/>
    <path d="M99.1967 36.3055C99.1967 36.3055 100.687 38.3543 101.907 42.5764C103.391 49.5106 104.154 56.5798 104.183 63.6711C104.183 73.2482 102.893 88.7657 102.893 88.7657C91.7767 94.3374 73.8473 91.0421 65.9558 85.6058C66.2756 83.8823 66.5466 74.82 67.1699 68.8418C67.5872 58.5871 67.9341 53.2159 68.0046 48.6522C68.1509 39.5358 72.6875 34.8258 76.1346 34.7554L84.8391 34.8909L99.1967 36.3055Z" fill="#336699"/>
    <path d="M101.939 85.9527C100.286 87.3131 97.0612 89.9255 96.4487 91.2426C95.7658 92.7494 95.3647 95.0366 94.904 95.893C94.4433 96.7493 95.1371 97.1829 96.091 96.874C97.0449 96.565 97.614 95.7575 98.3511 93.7846C99.0883 91.8117 101.137 90.267 101.137 90.267L101.939 85.9527Z" fill="#874C4C"/>
    <path d="M95.9013 103.692C96.2969 104.457 97.2183 104.462 98.0693 104.527C99.1067 104.646 100.158 104.527 101.142 104.18C102.326 103.838 103.364 103.116 104.096 102.126C104.931 100.923 105.148 99.4159 105.625 98.0338C106.622 95.1341 109.592 93.042 110.08 89.9688C110.281 88.7006 110.281 87.2046 110.622 86.4187C110.833 85.9526 115.717 77.5462 117.462 73.904C119.131 70.4026 120.383 68.755 118.866 64.549C117.348 60.3431 112.183 45.5411 108.524 40.3975C106.454 37.4816 103.164 36.6469 99.1749 36.3054C96.1397 44.2078 99.6682 52.3757 99.6682 52.3757L107.722 67.8661C107.722 67.8661 104.6 78.5326 102.649 84.4621C102.107 86.0881 101.023 87.1288 99.782 88.9553C99.24 89.7466 98.0151 91.1233 97.5815 91.9851C97.0395 93.0691 97.0395 93.7845 96.7685 95.3184C96.3457 97.7628 95.6899 103.329 95.9013 103.692Z" fill="#9E6767"/>
    <path d="M98.7685 36.2621C100.866 36.3434 103.88 36.7012 105.679 37.6117C107.478 38.5223 108.73 39.6442 110.801 43.7959C112.871 47.9477 115.901 56.0126 115.901 56.0126C115.901 56.0126 114.898 62.0993 105.272 63.6765L98.7685 51.682C98.7685 51.682 95.8688 44.2079 98.7685 36.2621Z" fill="#455A64"/>
    <path d="M73.7606 16.8911C74.045 17.4053 74.2913 17.9397 74.4977 18.49C74.8184 19.2087 75.2281 19.8842 75.7172 20.5008C76.9638 21.9371 78.7145 22.9886 80.3134 24.0075C81.2781 24.6254 82.3838 25.2053 83.5654 25.0373C84.7469 24.8693 86.064 25.124 87.2835 25.2324L91.549 25.6173L91.3106 30.0996C91.3106 30.0996 91.8526 28.9126 92.5626 27.4926C93.1805 26.2731 95.7712 20.0889 95.7821 20.0618C97.0666 16.9995 98.5896 12.9128 97.0558 9.69329C96.707 8.90049 96.1246 8.233 95.3864 7.78003C95.535 7.28507 95.5829 6.76537 95.5273 6.25159C95.442 5.52217 95.1942 4.82118 94.8021 4.20022C94.41 3.57926 93.8837 3.05415 93.2618 2.66355C92.0478 1.84317 90.6794 1.27884 89.2401 1.00503C87.3312 0.565905 85.3778 0.349467 83.419 0.36005C81.4998 0.418618 79.5889 0.637992 77.7064 1.01587C76.6562 1.20984 75.5924 1.32039 74.5248 1.34649C74.0649 1.37663 73.6031 1.35481 73.1481 1.28145C72.5826 1.11243 72.0271 0.911572 71.4842 0.67983C71.437 0.660005 71.3863 0.649793 71.3351 0.649793C71.284 0.649793 71.2333 0.660005 71.1861 0.67983C71.143 0.708419 71.1067 0.745994 71.0796 0.78997C71.0524 0.833945 71.0352 0.883277 71.0289 0.934571C70.8879 1.61122 70.8939 2.31025 71.0463 2.98442C71.1987 3.65859 71.494 4.29218 71.9124 4.84239C71.6686 4.80911 71.4311 4.7397 71.2078 4.63643C70.9542 4.51906 70.7097 4.38319 70.4761 4.22993C70.0783 3.96323 69.7298 3.62946 69.4463 3.24349C69.4072 3.183 69.3475 3.13872 69.2783 3.11883C69.1699 3.11883 69.0831 3.19471 69.0181 3.28143C68.7256 3.71647 68.5264 4.20741 68.4331 4.72328C68.3398 5.23915 68.3545 5.76876 68.4761 6.27869C68.7151 7.3022 69.1987 8.25253 69.8853 9.04831C69.5503 9.58949 69.3569 10.2062 69.3228 10.8418C69.2887 11.4773 69.415 12.1112 69.6902 12.6851C69.9312 13.1941 70.2555 13.6594 70.6495 14.0618C71.1373 14.5605 71.7335 14.967 72.2267 15.4331C72.7923 15.8585 73.307 16.3478 73.7606 16.8911Z" fill="#37474F"/>
    <path d="M86.7523 9.42226C86.7365 10.2317 86.8407 11.039 87.0612 11.8179C87.3184 12.5021 87.7324 13.1166 88.2699 13.6119C88.8779 14.1278 89.4401 14.6954 89.9501 15.3084C90.5006 16.2625 90.8234 17.3309 90.8932 18.4303C90.8963 18.7541 90.9719 19.0731 91.1145 19.3639C91.257 19.6546 91.4629 19.9097 91.717 20.1105C92.8769 20.8314 93.5707 19.4384 94.1885 18.7555C94.9853 18.0184 97.3538 17.1295 98.4487 19.6335C99.5814 22.2351 97.4893 25.6823 95.5869 26.2134C92.3078 27.1294 91.5924 24.8964 91.5924 24.8964L90.9636 36.6036C89.1154 40.1103 84.7686 41.2268 81.9122 40.6686C79.4461 40.1862 78.0911 38.4572 80.4109 35.9532L80.5356 32.3868C80.5356 32.3868 77.5762 32.7391 76.1508 32.4681C73.7714 32.0237 72.5953 30.002 71.9503 27.395C70.9259 23.2053 70.4544 18.7989 71.7281 9.36264C72.308 9.04286 74.6549 10.8694 78.2321 11.1133C81.1722 11.3205 84.1142 10.7366 86.7523 9.42226Z" fill="#9E6767"/>
    <path d="M80.5139 32.3761C80.5139 32.3761 85.8797 31.4763 87.7767 30.5441C88.8899 30.008 89.8155 29.1485 90.4325 28.078C90.1157 29.1591 89.5849 30.1654 88.8715 31.0373C87.4515 32.7338 80.4651 33.7961 80.4651 33.7961L80.5139 32.3761Z" fill="#874C4C"/>
    <path d="M83.3052 13.6119L85.8038 14.3762C85.8993 14.0349 85.859 13.6698 85.6913 13.3575C85.5235 13.0453 85.2414 12.8101 84.9041 12.7014C84.7393 12.6531 84.5665 12.6385 84.3959 12.6584C84.2254 12.6784 84.0606 12.7324 83.9114 12.8174C83.7622 12.9024 83.6316 13.0165 83.5275 13.153C83.4233 13.2895 83.3477 13.4456 83.3052 13.6119Z" fill="#263238"/>
    <path d="M82.438 25.4492L78.7578 26.6958C78.8295 26.9418 78.9498 27.1709 79.1116 27.3695C79.2735 27.5681 79.4736 27.7321 79.7001 27.8519C79.9265 27.9717 80.1747 28.0448 80.43 28.0669C80.6852 28.089 80.9423 28.0595 81.186 27.9804C81.6812 27.8018 82.0881 27.4386 82.3214 26.9668C82.5548 26.495 82.5966 25.9511 82.438 25.4492Z" fill="#874C4C"/>
    <path d="M82.1398 26.3489C81.6594 26.3493 81.1928 26.5092 80.8131 26.8035C80.4335 27.0978 80.1623 27.5098 80.0422 27.9749C80.4137 28.097 80.8144 28.097 81.1859 27.9749C81.5287 27.8537 81.832 27.6412 82.0631 27.3605C82.2942 27.0797 82.4444 26.7412 82.4975 26.3815C82.3795 26.3599 82.2598 26.3491 82.1398 26.3489Z" fill="#F28F8F"/>
    <path d="M72.1507 14.0076L74.6927 13.677C74.6734 13.5124 74.6214 13.3534 74.5396 13.2092C74.4579 13.0651 74.3481 12.9388 74.2167 12.8378C74.0854 12.7367 73.9352 12.663 73.7749 12.621C73.6146 12.579 73.4475 12.5694 73.2835 12.593C72.9484 12.6365 72.6431 12.8081 72.4319 13.0719C72.2206 13.3357 72.1199 13.6711 72.1507 14.0076Z" fill="#263238"/>
    <path d="M87.7766 15.0916L96.1614 17.948C95.6915 17.9534 95.2292 18.0666 94.8101 18.279C94.391 18.4914 94.0263 18.7972 93.744 19.1729L87.8091 16.9182L87.7766 15.0916Z" fill="#263238"/>
    <path d="M73.4027 18.3653C73.3931 18.5002 73.4107 18.6356 73.4543 18.7636C73.4979 18.8916 73.5667 19.0096 73.6566 19.1106C73.7465 19.2116 73.8557 19.2936 73.9778 19.3518C74.0999 19.41 74.2323 19.4431 74.3674 19.4493C74.502 19.4507 74.6354 19.4256 74.7603 19.3755C74.8851 19.3253 74.9988 19.251 75.095 19.1569C75.1911 19.0628 75.2677 18.9507 75.3205 18.8269C75.3733 18.7032 75.4012 18.5703 75.4026 18.4357C75.4122 18.3008 75.3946 18.1654 75.351 18.0374C75.3074 17.9094 75.2386 17.7914 75.1487 17.6904C75.0588 17.5894 74.9496 17.5074 74.8275 17.4492C74.7055 17.3911 74.573 17.3579 74.4379 17.3517C74.3034 17.3503 74.1699 17.3754 74.045 17.4256C73.9202 17.4757 73.8065 17.55 73.7104 17.6441C73.6142 17.7382 73.5376 17.8503 73.4848 17.9741C73.432 18.0978 73.4041 18.2308 73.4027 18.3653Z" fill="#263238"/>
    <path d="M82.98 18.3653C82.9811 18.562 83.0401 18.754 83.1496 18.9174C83.259 19.0808 83.4141 19.2084 83.5955 19.2843C83.777 19.3602 83.9767 19.3811 84.1699 19.3444C84.3632 19.3077 84.5413 19.2149 84.6822 19.0777C84.8231 18.9405 84.9205 18.7649 84.9624 18.5727C85.0042 18.3805 84.9886 18.1803 84.9176 17.9969C84.8465 17.8135 84.723 17.6551 84.5626 17.5414C84.4021 17.4276 84.2118 17.3636 84.0152 17.3572C83.7444 17.3543 83.4835 17.4587 83.2896 17.6476C83.0956 17.8365 82.9843 18.0946 82.98 18.3653Z" fill="#263238"/>
    <path d="M68.9963 16.8802C68.7041 16.5477 68.5157 16.137 68.4543 15.6986C68.4412 15.4943 68.4949 15.2912 68.6073 15.1201C68.7198 14.949 68.8849 14.8191 69.0776 14.7501L69.6196 14.6959C71.3866 14.5333 73.7009 14.5171 75.0993 14.9723C76.8608 15.5469 77.419 16.1864 78.4542 16.1864C79.4895 16.1864 80.1344 15.6065 81.9881 15.1024C83.4677 14.7013 85.9393 14.7989 87.8363 15.032L88.427 15.1078C88.6333 15.1785 88.8106 15.3149 88.932 15.496C89.0534 15.677 89.1121 15.8929 89.0991 16.1105C89.0352 16.5352 88.8465 16.9314 88.5571 17.2487C88.4676 17.3895 88.4051 17.5458 88.3728 17.7094C88.1886 18.5062 88.091 20.0346 87.717 20.8747C87.5421 21.2911 87.2944 21.6728 86.9853 22.0021C86.8711 22.1236 86.7459 22.2342 86.6113 22.3327C86.5425 22.3864 86.4701 22.4353 86.3945 22.479C86.1891 22.6045 85.9711 22.708 85.7441 22.788L85.6303 22.8205C85.5734 22.84 85.5155 22.8562 85.4569 22.8693L85.278 22.9126C85.0871 22.9549 84.8932 22.982 84.6981 22.9939C84.6151 22.9995 84.5318 22.9995 84.4488 22.9939H84.1398C81.7171 22.9614 80.7306 21.7744 80.0911 20.5604C79.4515 19.3463 79.5491 17.6281 78.4651 17.6281H78.3567H78.2591C77.4461 17.8124 77.5762 19.3734 77.0776 20.4899C76.8915 20.9323 76.6332 21.3407 76.3133 21.6986C76.2561 21.7657 76.1946 21.8291 76.1291 21.8883C76.1004 21.9213 76.0676 21.9504 76.0315 21.975L75.9285 22.0563L75.8364 22.1322L75.7334 22.2026L75.6521 22.2514L75.5979 22.2893C75.2993 22.4587 74.9781 22.5847 74.644 22.6633H74.5573C74.1724 22.7429 73.7793 22.7756 73.3865 22.7609C72.6492 22.7916 71.9208 22.5893 71.305 22.1826C70.6891 21.7759 70.217 21.1855 69.9557 20.4953C69.5709 19.639 69.4028 18.1105 69.2077 17.3029C69.1692 17.1482 69.097 17.0038 68.9963 16.8802Z" fill="#263238"/>
    <path d="M78.7577 17.6553L78.568 24.6254L74.6819 23.498L78.3079 17.5956C78.4604 17.5811 78.6143 17.6015 78.7577 17.6553Z" fill="#874C4C"/>
    </svg>
