<svg width="301" height="225" viewBox="0 0 301 225" fill="none" xmlns="http://www.w3.org/2000/svg">
    <path d="M301 197.205H0V197.355H301V197.205Z" fill="#EBEBEB"/>
    <path d="M270.84 206.891H250.901V207.041H270.84V206.891Z" fill="#EBEBEB"/>
    <path d="M199.394 208.528H194.163V208.679H199.394V208.528Z" fill="#EBEBEB"/>
    <path d="M250.299 201.304H238.747V201.455H250.299V201.304Z" fill="#EBEBEB"/>
    <path d="M57.5814 202.316H31.5811V202.466H57.5814V202.316Z" fill="#EBEBEB"/>
    <path d="M66.7557 202.316H62.9451V202.466H66.7557V202.316Z" fill="#EBEBEB"/>
    <path d="M135.54 204.856H79.145V205.007H135.54V204.856Z" fill="#EBEBEB"/>
    <path d="M142.674 170.356H26.4338C25.5232 170.354 24.6504 169.991 24.0071 169.347C23.3638 168.702 23.0024 167.829 23.0024 166.918V3.51732C23.0104 2.61193 23.3752 1.74622 24.0177 1.10825C24.6602 0.470272 25.5284 0.111552 26.4338 0.110001H142.674C143.586 0.110001 144.46 0.472156 145.105 1.1168C145.749 1.76144 146.111 2.63576 146.111 3.54742V166.918C146.111 167.83 145.749 168.704 145.105 169.349C144.46 169.993 143.586 170.356 142.674 170.356ZM26.4338 0.230401C25.5631 0.231996 24.7286 0.578998 24.1135 1.19524C23.4984 1.81149 23.1529 2.64662 23.1529 3.51732V166.918C23.1529 167.789 23.4984 168.624 24.1135 169.24C24.7286 169.856 25.5631 170.203 26.4338 170.205H142.674C143.545 170.204 144.38 169.857 144.996 169.241C145.613 168.625 145.959 167.789 145.961 166.918V3.51732C145.959 2.64606 145.613 1.81095 144.996 1.19487C144.38 0.578802 143.545 0.231992 142.674 0.230401H26.4338Z" fill="#EBEBEB"/>
    <path d="M272.893 170.356H156.646C155.735 170.354 154.862 169.991 154.218 169.347C153.573 168.703 153.211 167.829 153.209 166.918V3.51732C153.218 2.61138 153.585 1.74568 154.228 1.10787C154.872 0.470062 155.74 0.111535 156.646 0.110001H272.893C273.797 0.113134 274.664 0.472555 275.305 1.11036C275.946 1.74817 276.31 2.61297 276.318 3.51732V166.918C276.318 167.828 275.957 168.7 275.315 169.345C274.673 169.989 273.802 170.352 272.893 170.356ZM156.646 0.230401C155.775 0.231992 154.94 0.578802 154.324 1.19487C153.708 1.81095 153.361 2.64606 153.359 3.51732V166.918C153.361 167.789 153.708 168.625 154.324 169.241C154.94 169.857 155.775 170.204 156.646 170.205H272.893C273.764 170.204 274.599 169.857 275.215 169.241C275.831 168.625 276.178 167.789 276.18 166.918V3.51732C276.178 2.64606 275.831 1.81095 275.215 1.19487C274.599 0.578802 273.764 0.231992 272.893 0.230401H156.646Z" fill="#EBEBEB"/>
    <path d="M158.826 132.33C173.289 129.982 183.11 116.355 180.762 101.892C178.415 87.429 164.787 77.6077 150.324 79.9553C135.861 82.303 126.04 95.9306 128.388 110.394C130.735 124.856 144.363 134.678 158.826 132.33Z" fill="#F0F0F0"/>
    <path d="M161.336 121.714C166.35 117.699 181.202 117.5 188.221 123.52C195.24 129.54 204.878 139.371 208.292 140.575C211.705 141.779 223.071 137.366 232.239 136.361C241.408 135.355 245.014 144.789 248.421 150.008C251.828 155.227 255.446 155.426 257.054 162.247C258.661 169.067 261.665 174.088 266.282 179.705C270.9 185.321 284.342 192.949 285.745 197.205H137.653L136.052 139.172C140.037 135.157 156.291 125.729 161.336 121.714Z" fill="#EBEBEB"/>
    <path d="M42.9044 144.789C46.0168 141.646 56.0762 139.575 61.8373 127.132C67.5985 114.689 86.5193 88.8027 93.7433 85.2208C100.967 81.6389 108.956 65.9568 111.845 63.7233C114.735 61.4899 118.467 67.534 119.467 71.146C122.067 80.3325 134.517 106.465 141.921 111.48C149.326 116.495 149.844 127.331 151.909 133.555C153.973 139.78 166.633 143.386 169.511 151.411C172.389 159.435 204.427 197.205 204.427 197.205H13.2439C22.7675 190.288 30.9186 156.895 42.9044 144.789Z" fill="#F5F5F5"/>
    <path d="M112.147 72.35C112.147 75.4383 111.213 89.7418 107.999 93.2213C104.784 96.7009 107.62 88.9411 102.19 93.2213C96.7595 97.5016 94.3635 106.327 85.2552 109.409C76.147 112.491 76.9657 104.726 81.3784 100.307C85.791 95.8882 91.0104 88.1344 95.1642 85.8589C99.318 83.5833 112.147 62.8504 112.147 72.35Z" fill="#F0F0F0"/>
    <path d="M89.698 136.294C94.0264 130.311 74.5818 137.234 68.6943 135.09C62.8067 132.947 67.3578 130.01 58.7914 137.498C50.2249 144.987 35.3856 152.217 43.4103 154.758C51.4349 157.298 81.6433 147.401 89.698 136.294Z" fill="#F0F0F0"/>
    <path d="M200.538 139.274C197.215 135.301 193.416 127.836 188.498 126.53C183.58 125.224 180.275 124.423 181.274 127.433C182.273 130.443 205.715 145.451 200.538 139.274Z" fill="#F0F0F0"/>
    <path d="M254.387 160.645C253.532 157.858 250.907 157.936 248.602 153.518C246.296 149.099 242.883 141.58 237.26 141.279C231.637 140.978 222.74 143.187 230.241 148.804C237.742 154.421 257.361 170.374 254.387 160.645Z" fill="#F0F0F0"/>
    <path d="M243.509 32.8889H129.129C114.681 32.8889 155.214 29.8789 177.488 24.8642C199.762 19.8496 201.568 18.2422 208.99 23.6602C216.413 29.0782 238.488 17.0382 249.126 24.2622C259.763 31.4862 262.568 32.8889 243.509 32.8889Z" fill="#FAFAFA"/>
    <path d="M84.9723 52.2492C99.2397 52.2492 126.468 51.0874 115.548 46.2774C104.628 41.4674 96.5428 51.0934 91.7749 47.0058C87.0071 42.9182 79.2895 42.3463 72.8842 46.2774C66.4789 50.2084 68.3812 44.0921 60.6576 46.2774C49.8216 49.3416 15.1223 52.2492 44.6564 52.2492H84.9723Z" fill="#FAFAFA"/>
    <path d="M205.421 104.021C216.317 104.021 237.104 103.13 228.766 99.4641C220.428 95.7979 214.258 103.13 210.622 100.018C206.986 96.9056 201.086 96.4601 196.174 99.4641C191.261 102.468 192.736 97.7965 186.837 99.4641C178.583 101.8 152.077 104.021 174.622 104.021H205.421Z" fill="#FAFAFA"/>
    <path d="M150.5 224.391C214.964 224.391 267.222 221.34 267.222 217.576C267.222 213.813 214.964 210.762 150.5 210.762C86.0362 210.762 33.7781 213.813 33.7781 217.576C33.7781 221.34 86.0362 224.391 150.5 224.391Z" fill="#F5F5F5"/>
    <path d="M142.108 216.288C149.651 216.288 155.768 204.176 155.768 189.234C155.768 174.293 149.651 162.18 142.108 162.18H124.614V216.288H142.108Z" fill="#263238"/>
    <path d="M124.524 216.288C132.068 216.288 138.183 204.176 138.183 189.234C138.183 174.293 132.068 162.18 124.524 162.18C116.98 162.18 110.864 174.293 110.864 189.234C110.864 204.176 116.98 216.288 124.524 216.288Z" fill="#263238"/>
    <path d="M242.263 216.288C249.806 216.288 255.916 204.176 255.916 189.234C255.916 174.293 249.83 162.18 242.263 162.18H224.739V216.288H242.263Z" fill="#263238"/>
    <path d="M224.673 216.288C232.216 216.288 238.332 204.176 238.332 189.234C238.332 174.293 232.216 162.18 224.673 162.18C217.129 162.18 211.013 174.293 211.013 189.234C211.013 204.176 217.129 216.288 224.673 216.288Z" fill="#263238"/>
    <path d="M52.5787 202.665L43.2236 200.359C41.6406 199.972 40.1617 199.242 38.8908 198.222C37.6199 197.202 36.5878 195.915 35.8672 194.454C35.2291 193.164 34.3481 192.009 33.2726 191.052L30.9729 189.006C29.6596 187.836 28.6405 186.374 27.9983 184.737C27.3561 183.1 27.1088 181.335 27.2766 179.584L28.5408 166.34C28.7528 164.12 29.6237 162.013 31.0419 160.292C32.46 158.57 34.3605 157.312 36.4993 156.678L43.1875 154.704L67.3157 152.982L52.5787 202.665Z" fill="#336699"/>
    <path d="M72.9806 216.288C80.5237 216.288 86.64 204.176 86.64 189.234C86.64 174.293 80.5237 162.18 72.9806 162.18H55.4624V216.288H72.9806Z" fill="#263238"/>
    <path d="M55.3962 216.288C62.9401 216.288 69.0556 204.176 69.0556 189.234C69.0556 174.293 62.9401 162.18 55.3962 162.18C47.8523 162.18 41.7368 174.293 41.7368 189.234C41.7368 204.176 47.8523 216.288 55.3962 216.288Z" fill="#263238"/>
    <path d="M55.3961 210.617C60.6891 210.617 64.9799 201.044 64.9799 189.234C64.9799 177.425 60.6891 167.851 55.3961 167.851C50.1031 167.851 45.8123 177.425 45.8123 189.234C45.8123 201.044 50.1031 210.617 55.3961 210.617Z" fill="#336699"/>
    <path d="M193.994 202.665L217.581 149.954C217.581 149.954 182.292 123.683 137.515 123.683C64.9438 123.683 67.436 133.465 43.1514 154.704L53.7526 162.18C72.6132 162.18 74.1845 192.076 77.2005 200.486C77.4258 201.123 77.8433 201.675 78.3953 202.065C78.9473 202.455 79.6067 202.665 80.2827 202.665H193.994Z" fill="#336699"/>
    <path d="M173.135 216.288C180.678 216.288 186.788 204.176 186.788 189.234C186.788 174.293 180.678 162.18 173.135 162.18H155.611V216.288H173.135Z" fill="#263238"/>
    <path d="M155.545 216.288C163.088 216.288 169.204 204.176 169.204 189.234C169.204 174.293 163.088 162.18 155.545 162.18C148.001 162.18 141.885 174.293 141.885 189.234C141.885 204.176 148.001 216.288 155.545 216.288Z" fill="#263238"/>
    <path d="M155.545 210.617C160.838 210.617 165.129 201.044 165.129 189.234C165.129 177.425 160.838 167.851 155.545 167.851C150.252 167.851 145.961 177.425 145.961 189.234C145.961 201.044 150.252 210.617 155.545 210.617Z" fill="#336699"/>
    <path d="M179.92 198.312C177.747 188.44 167.356 162.192 154.901 162.192L141.404 149.936H217.581C222.854 149.936 246.278 153.175 259.552 162.162C270.274 169.422 271.592 180.445 273.133 196.549C273.452 199.836 270.575 202.659 266.939 202.665C236.417 202.665 199.479 202.779 186.03 202.821C183.062 202.852 180.504 200.955 179.92 198.312Z" fill="#336699"/>
    <path opacity="0.8" d="M212.073 149.954H162.414C161.265 149.958 160.133 149.682 159.116 149.147C158.099 148.613 157.228 147.838 156.58 146.89C151.054 138.702 141.271 130.407 134.102 126.476C184.308 126.476 212.073 149.954 212.073 149.954Z" fill="white"/>
    <path opacity="0.8" d="M132.873 128.938C138.893 133.296 145.744 140.051 149.591 146.763C149.777 147.083 149.876 147.447 149.878 147.817C149.88 148.188 149.785 148.552 149.603 148.874C149.42 149.196 149.156 149.465 148.837 149.653C148.518 149.842 148.155 149.943 147.785 149.948H66.4006C57.7679 149.948 60.6334 128.444 105.729 126.831C109.979 126.464 119.888 126.452 125.366 126.476C128.065 126.49 130.691 127.352 132.873 128.938Z" fill="white"/>
    <path d="M188.529 190.944L214.613 192.913C215.02 192.943 215.4 193.126 215.677 193.426C215.954 193.725 216.107 194.118 216.106 194.526V196.332C216.106 196.76 215.936 197.17 215.634 197.473C215.331 197.775 214.921 197.945 214.493 197.945H188.426C187.998 197.945 187.587 197.775 187.283 197.473C186.98 197.171 186.808 196.76 186.807 196.332V192.581C186.804 192.358 186.847 192.137 186.934 191.931C187.02 191.726 187.148 191.54 187.31 191.387C187.472 191.233 187.663 191.114 187.873 191.038C188.083 190.962 188.306 190.93 188.529 190.944Z" fill="#263238"/>
    <path d="M271.442 191.305L264.278 192.75C263.911 192.823 263.581 193.02 263.344 193.309C263.107 193.597 262.977 193.96 262.978 194.333V196.29C262.978 196.502 263.019 196.712 263.101 196.909C263.182 197.105 263.302 197.283 263.452 197.433C263.603 197.583 263.781 197.701 263.978 197.782C264.174 197.863 264.385 197.904 264.597 197.903H272.182C272.411 197.904 272.637 197.856 272.846 197.763C273.054 197.67 273.241 197.533 273.393 197.362C273.545 197.192 273.659 196.991 273.727 196.772C273.796 196.554 273.817 196.324 273.789 196.097L273.386 192.702C273.36 192.478 273.288 192.262 273.173 192.068C273.059 191.874 272.905 191.706 272.722 191.574C272.539 191.443 272.331 191.351 272.11 191.305C271.89 191.258 271.662 191.258 271.442 191.305Z" fill="#263238"/>
    <path opacity="0.8" d="M209.996 160.591L173.575 158.821C173.575 158.821 173.202 165.275 186.698 166.647C194.932 167.402 203.172 165.26 209.996 160.591Z" fill="white"/>
    <path opacity="0.3" d="M28.5348 166.334C28.6366 165.276 28.89 164.238 29.2873 163.252L31.7555 163.18C31.7555 163.18 31.8699 172.649 28.294 172.053C28.1938 172.038 28.0951 172.014 27.999 171.981L28.5348 166.334Z" fill="black"/>
    <path opacity="0.8" d="M255.964 160.013C257.194 160.673 258.389 161.394 259.546 162.174C261.306 163.353 262.913 164.744 264.332 166.316C263.823 166.461 263.307 166.578 262.785 166.665C254.7 168.056 248.825 160.591 248.825 160.591L255.964 160.013Z" fill="white"/>
    <path d="M221.277 170.765H247.049C247.952 170.77 248.832 171.052 249.571 171.572L254.074 174.732C254.585 175.086 255.017 175.543 255.344 176.072C255.67 176.601 255.883 177.193 255.97 177.808L257.12 186.339C257.206 186.891 257.17 187.455 257.016 187.992C256.861 188.528 256.591 189.025 256.225 189.447C255.859 189.869 255.405 190.206 254.895 190.434C254.385 190.662 253.832 190.777 253.273 190.769H225.714C224.89 190.758 224.084 190.522 223.384 190.087C222.684 189.652 222.116 189.035 221.741 188.301L216.593 178.266C216.222 177.582 216.056 176.806 216.113 176.03C216.171 175.254 216.45 174.511 216.918 173.889L218.207 172.234C218.572 171.77 219.038 171.396 219.571 171.141C220.103 170.887 220.687 170.758 221.277 170.765Z" fill="#263238"/>
    <path opacity="0.1" d="M85.4239 191.576H135.823C135.99 191.575 136.156 191.61 136.309 191.676C136.462 191.743 136.6 191.841 136.713 191.964C136.826 192.087 136.913 192.232 136.967 192.39C137.021 192.548 137.042 192.716 137.027 192.882L136.768 195.814C136.741 196.114 136.603 196.393 136.38 196.596C136.157 196.799 135.866 196.911 135.564 196.91H85.159C84.9919 196.91 84.8265 196.876 84.6734 196.809C84.5202 196.743 84.3826 196.645 84.2694 196.522C84.1561 196.399 84.0697 196.254 84.0156 196.096C83.9614 195.938 83.9408 195.77 83.955 195.603L84.2139 192.666C84.2425 192.366 84.3827 192.087 84.6068 191.885C84.8308 191.684 85.1224 191.573 85.4239 191.576Z" fill="black"/>
    <path d="M101.491 126.476L104.507 125.892L98.3369 152.982H95.4473L101.491 126.476Z" fill="#336699"/>
    <path d="M112.502 156.028H102.178L101.913 157.112C101.832 157.35 101.81 157.604 101.85 157.852C101.89 158.1 101.99 158.335 102.142 158.535C102.293 158.736 102.491 158.896 102.719 159.003C102.946 159.109 103.197 159.159 103.448 159.146H109.69C110.275 159.119 110.835 158.907 111.291 158.542C111.748 158.176 112.077 157.676 112.231 157.112L112.502 156.028Z" fill="#263238"/>
    <path d="M76.9897 156.028H66.6714L66.4065 157.112C66.3257 157.35 66.3044 157.604 66.3443 157.852C66.3842 158.1 66.4842 158.335 66.6356 158.535C66.7869 158.736 66.9851 158.896 67.2127 159.003C67.4404 159.109 67.6906 159.159 67.9416 159.146H74.1844C74.7684 159.119 75.3287 158.907 75.7851 158.542C76.2414 158.176 76.5704 157.676 76.7248 157.112L76.9897 156.028Z" fill="#263238"/>
    <path opacity="0.1" d="M97.1991 188.072C97.1091 188.072 97.0227 188.037 96.9585 187.974C96.8944 187.911 96.8575 187.825 96.8559 187.735L96.0974 152.265C96.0973 152.174 96.1322 152.087 96.195 152.021C96.2577 151.954 96.3435 151.915 96.4345 151.91C96.5245 151.91 96.6109 151.946 96.6751 152.009C96.7392 152.072 96.7761 152.157 96.7777 152.247L97.5241 187.723C97.5242 187.814 97.4891 187.901 97.4262 187.966C97.3633 188.031 97.2775 188.069 97.187 188.072H97.1991Z" fill="black"/>
    <path d="M117.631 213.928L114.073 213.874L113.05 205.627L116.607 205.681L117.631 213.928Z" fill="#FF8B7B"/>
    <path d="M95.9766 213.844L92.7258 212.032L95.1519 204.381L98.4027 206.193L95.9766 213.844Z" fill="#FF8B7B"/>
    <path d="M92.4189 211.605L96.1874 213.748C96.2491 213.781 96.2972 213.835 96.3236 213.899C96.3499 213.964 96.3529 214.036 96.3319 214.103L95.3808 217.203C95.3575 217.279 95.3173 217.348 95.2633 217.405C95.2093 217.462 95.1429 217.507 95.0692 217.535C94.9954 217.563 94.9163 217.573 94.8378 217.566C94.7593 217.558 94.6835 217.533 94.6162 217.492C93.4122 216.788 92.5694 216.21 91.0403 215.343C90.1012 214.813 87.2116 213.302 85.9173 212.568C84.623 211.833 85.1769 210.449 85.7728 210.635C88.4517 211.466 90.6551 211.767 91.7928 211.514C92.0055 211.465 92.2289 211.497 92.4189 211.605Z" fill="#263238"/>
    <path d="M114.001 213.465L117.884 213.525C117.955 213.525 118.023 213.55 118.078 213.595C118.133 213.64 118.171 213.702 118.185 213.772L118.835 216.944C118.848 217.019 118.845 217.096 118.825 217.17C118.805 217.243 118.769 217.311 118.719 217.369C118.669 217.426 118.608 217.472 118.538 217.503C118.469 217.534 118.393 217.548 118.317 217.546C116.914 217.504 114.892 217.39 113.134 217.36C111.075 217.33 109.293 217.414 106.879 217.36C105.422 217.36 105.073 215.855 105.675 215.728C108.468 215.162 110.738 215.126 113.164 213.688C113.418 213.54 113.707 213.463 114.001 213.465Z" fill="#263238"/>
    <path d="M112.321 109.632C110.282 111.3 108.156 112.86 105.952 114.303C104.844 115.02 103.718 115.73 102.52 116.38C101.268 117.09 99.952 117.68 98.5894 118.144C98.1829 118.274 97.7687 118.379 97.3493 118.457C97.1205 118.499 96.8557 118.529 96.6028 118.553C96.3164 118.577 96.0284 118.577 95.742 118.553C95.1109 118.502 94.4966 118.324 93.936 118.03C93.3998 117.744 92.9219 117.36 92.5273 116.898C91.9186 116.167 91.4714 115.316 91.2149 114.4C91.0069 113.66 90.8678 112.902 90.7995 112.136C90.6178 109.397 90.88 106.647 91.5761 103.991L94.2189 104.358C94.2068 106.75 94.4408 109.136 94.9172 111.48C95.0303 111.975 95.1895 112.459 95.3928 112.925C95.5112 113.237 95.6984 113.519 95.9406 113.75C96.0129 113.798 96.043 113.792 96.049 113.75C96.055 113.707 96.049 113.719 96.049 113.707C96.354 113.64 96.6522 113.546 96.9399 113.424C97.9661 112.981 98.9546 112.456 99.8958 111.853C100.907 111.251 101.925 110.547 102.906 109.837C104.916 108.428 106.945 106.911 108.878 105.418L112.321 109.632Z" fill="#FF8B7B"/>
    <path d="M113.404 107.994C111.785 111.649 105.542 115.429 102.081 117.024C101.057 117.494 101.19 118.867 100.582 118.271C100.582 118.271 97.915 113.376 97.915 112.377C97.915 111.378 98.8 111.974 99.5224 111.299C102.123 108.891 107.565 103.6 110.96 103.016C115.403 102.233 114.922 104.587 113.404 107.994Z" fill="#336699"/>
    <path d="M98.2883 111.727C97.9452 111.221 96.5245 112.546 96.073 113.099C95.6215 113.653 96.8616 115.664 97.2348 116.711C97.6081 117.759 96.8736 118.873 98.0174 119.035C98.6194 119.119 100.335 118.897 100.666 118.433C101.443 117.44 99.1131 112.943 98.2883 111.727Z" fill="#263238"/>
    <path opacity="0.2" d="M106.458 114.616C109.371 112.78 112.357 110.36 113.411 107.994C113.477 107.832 113.555 107.681 113.615 107.525L113.676 106.923C109.72 107.597 107.035 111.594 106.458 114.616Z" fill="black"/>
    <path d="M93.7071 105.46L96.0008 102.059L92.2563 100.53C92.2563 100.53 90.1373 102.938 91.6543 105.039L93.7071 105.46Z" fill="#FF8B7B"/>
    <path d="M96.964 98.3624L93.5206 98.248L92.2563 100.5L96.0008 102.029L96.964 98.3624Z" fill="#FF8B7B"/>
    <path opacity="0.2" d="M113.05 205.627L113.579 209.877L117.137 209.937L116.607 205.687L113.05 205.627Z" fill="black"/>
    <path opacity="0.2" d="M98.4029 206.193L95.1521 204.381L93.906 208.33L97.1508 210.142L98.4029 206.193Z" fill="black"/>
    <path d="M130.832 104.304C126.998 117.813 127.774 132.147 127.425 135.048C124.644 134.85 114.181 134.067 108.462 133.64C106.656 113.322 110.954 103.004 110.954 103.004C110.954 103.004 112.158 102.769 113.832 102.601C114.35 102.546 114.91 102.498 115.494 102.468C115.819 102.468 116.144 102.438 116.475 102.432C119.173 102.478 121.866 102.679 124.542 103.034C125.047 103.094 125.559 103.172 126.059 103.251C126.558 103.329 126.974 103.413 127.401 103.497C129.333 103.883 130.832 104.304 130.832 104.304Z" fill="#336699"/>
    <path d="M116.475 102.45C114.88 103.305 114.416 106.435 117.504 106.556C120.593 106.676 123.657 104.503 124.542 103.046L116.475 102.45Z" fill="#263238"/>
    <path opacity="0.2" d="M126.781 110.101C126.444 111.408 126.829 117.368 128.196 118.842C128.382 116.934 128.629 114.935 128.96 112.901L126.781 110.101Z" fill="black"/>
    <path d="M124.415 93.8956C123.717 96.4481 122.856 101.162 124.542 103.028C123.025 104.328 121.285 105.237 118.197 105.117C115.108 104.996 115.584 103.491 116.475 102.432C119.425 101.956 119.485 99.8012 119.154 97.7484L124.415 93.8956Z" fill="#FF8B7B"/>
    <path opacity="0.2" d="M122.272 95.4668L119.154 97.7484C119.243 98.227 119.291 98.7124 119.298 99.1992C120.412 99.1209 122.025 97.9952 122.224 96.8695C122.324 96.4086 122.341 95.9334 122.272 95.4668Z" fill="black"/>
    <path d="M116.384 92.9143C116.384 92.9143 114.205 89.8501 114.843 87.4542C115.662 84.39 120.598 88.1465 116.384 92.9143Z" fill="#263238"/>
    <path d="M125.017 90.0127C124.536 93.5103 124.415 95.5812 122.531 97.2367C119.66 99.753 115.446 97.8387 114.868 94.2267C114.344 91.018 115.211 85.8348 118.757 84.697C119.539 84.44 120.375 84.3882 121.184 84.5466C121.993 84.705 122.747 85.0682 123.376 85.6016C124.004 86.1349 124.485 86.8206 124.772 87.5929C125.059 88.3652 125.144 89.1984 125.017 90.0127Z" fill="#FF8B7B"/>
    <path d="M116.74 93.7089C116.74 94.2447 116.246 94.3712 115.849 94.612C115.573 94.8036 115.341 95.0519 115.169 95.3404C115.169 95.3404 114.657 95.1718 114.868 94.2628C115.078 93.3538 116.74 93.2093 116.74 93.7089Z" fill="#263238"/>
    <path d="M116.987 93.727C116.987 94.6481 118.004 94.5217 118.793 94.7745C119.432 94.9739 119.995 95.3647 120.406 95.8942C120.509 95.6629 120.542 95.4069 120.503 95.157C120.463 94.9071 120.352 94.6739 120.183 94.4855C119.196 93.1912 116.987 93.2274 116.987 93.727Z" fill="#263238"/>
    <path d="M122.314 86.8522C120.123 87.5023 113.976 88.1826 114.729 85.0462C115.776 80.6576 118.546 82.9452 118.943 83.5713C120.707 82.295 128.491 83.4087 126.938 85.9311C128.629 86.19 129.61 88.0321 128.394 88.9411C127.178 89.8501 125.703 93.5585 124.891 93.4501C123.908 93.3143 122.948 93.0449 122.037 92.6494L123.711 90.41C123.711 90.41 121.682 88.4836 122.314 86.8522Z" fill="#263238"/>
    <path d="M126.149 86.3164C127.353 86.0214 128.479 85.889 129.454 86.792C129.382 85.2749 127.305 85.0642 126.149 86.3164Z" fill="#263238"/>
    <path d="M126.312 94.022C126.051 94.3753 125.724 94.6737 125.348 94.9C124.971 95.1263 124.554 95.2759 124.12 95.3404C122.952 95.5089 122.525 94.4314 122.976 93.414C123.38 92.4929 124.475 91.301 125.583 91.608C125.822 91.6796 126.04 91.8094 126.217 91.9859C126.394 92.1623 126.524 92.3799 126.597 92.6191C126.669 92.8583 126.68 93.1116 126.631 93.3564C126.581 93.6013 126.471 93.8299 126.312 94.022Z" fill="#FF8B7B"/>
    <path d="M112.255 209.04L118.275 209.13C118.275 209.13 114.801 185.345 115.343 174.281C115.506 170.915 114.964 166.208 115.855 161.163C116.98 154.8 117.522 152.266 118.973 144.229C120.009 138.498 120.93 134.597 120.93 134.597L108.462 133.67C108.462 133.67 104.387 162.331 104.507 173.185C104.633 184.436 112.255 209.04 112.255 209.04Z" fill="#336699"/>
    <path opacity="0.6" d="M112.255 209.04L118.275 209.13C118.275 209.13 114.801 185.345 115.343 174.281C115.506 170.915 114.964 166.208 115.855 161.163C116.98 154.8 117.522 152.266 118.973 144.229C120.009 138.498 120.93 134.597 120.93 134.597L108.462 133.67C108.462 133.67 104.387 162.331 104.507 173.185C104.633 184.436 112.255 209.04 112.255 209.04Z" fill="black"/>
    <path opacity="0.2" d="M115.855 161.163C115.432 163.802 115.257 166.474 115.331 169.146C114.296 172.071 113.393 174.847 112.761 177.315C111.659 181.631 109.913 188.181 108.215 194.472C106.367 187.103 104.567 178.585 104.513 173.155L115.855 161.163Z" fill="black"/>
    <path d="M115.187 134.139C115.187 134.139 106.229 156.774 102.834 166.647C99.1133 177.435 93.1113 206.554 93.1113 206.554L98.7761 209.763C98.7761 209.763 107.601 185.761 111.256 175.256C115.421 163.288 126.908 144.379 127.425 135.078L115.187 134.139Z" fill="#336699"/>
    <path opacity="0.6" d="M115.187 134.139C115.187 134.139 106.229 156.774 102.834 166.647C99.1133 177.435 93.1113 206.554 93.1113 206.554L98.7761 209.763C98.7761 209.763 107.601 185.761 111.256 175.256C115.421 163.288 126.908 144.379 127.425 135.078L115.187 134.139Z" fill="black"/>
    <path d="M92.3647 206.265L99.0349 210.051L100.167 208.059L92.7801 203.7L92.3647 206.265Z" fill="#336699"/>
    <path d="M111.496 209.167L118.672 209.281L118.708 206.963L110.69 206.71L111.496 209.167Z" fill="#336699"/>
    <path d="M120.334 90.5966C120.334 90.8856 120.141 91.1023 119.954 91.0903C119.768 91.0782 119.635 90.8314 119.659 90.5485C119.683 90.2655 119.846 90.0428 120.033 90.0548C120.219 90.0669 120.358 90.3137 120.334 90.5966Z" fill="#263238"/>
    <path d="M116.529 90.3558C116.529 90.6448 116.342 90.8615 116.156 90.8495C115.969 90.8374 115.831 90.5906 115.855 90.3077C115.879 90.0247 116.041 89.802 116.228 89.814C116.415 89.8261 116.553 90.0729 116.529 90.3558Z" fill="#263238"/>
    <path d="M117.39 90.5786C116.982 91.4269 116.46 92.2149 115.837 92.9203C116.022 93.0751 116.238 93.1876 116.471 93.25C116.704 93.3124 116.948 93.3232 117.185 93.2816L117.39 90.5786Z" fill="#FF5652"/>
    <path d="M117.077 95.1237C117.399 95.1106 117.715 95.0311 118.005 94.8902C118.295 94.7494 118.553 94.5501 118.763 94.3049C118.771 94.2971 118.777 94.2877 118.781 94.2774C118.786 94.2671 118.788 94.256 118.788 94.2447C118.788 94.2335 118.786 94.2224 118.781 94.2121C118.777 94.2018 118.771 94.1924 118.763 94.1845C118.747 94.1702 118.727 94.1622 118.705 94.1622C118.684 94.1622 118.664 94.1702 118.648 94.1845C118.41 94.4504 118.113 94.6565 117.78 94.7862C117.447 94.9158 117.089 94.9654 116.734 94.931C116.712 94.9308 116.69 94.9387 116.674 94.9531C116.657 94.9675 116.646 94.9875 116.644 95.0093C116.642 95.0205 116.642 95.032 116.646 95.0429C116.649 95.0539 116.654 95.064 116.662 95.0726C116.669 95.0812 116.678 95.088 116.689 95.0927C116.699 95.0974 116.71 95.0997 116.722 95.0996C116.839 95.1157 116.958 95.1238 117.077 95.1237Z" fill="#263238"/>
    <path d="M120.936 89.6274C120.961 89.6326 120.988 89.6326 121.014 89.6274C121.033 89.6152 121.049 89.5995 121.061 89.5811C121.074 89.5626 121.083 89.5419 121.087 89.5201C121.091 89.4982 121.092 89.4757 121.087 89.4538C121.083 89.432 121.074 89.4112 121.062 89.3926C120.923 89.1648 120.731 88.9737 120.503 88.8354C120.274 88.6971 120.016 88.6157 119.75 88.598C119.727 88.5971 119.705 88.6009 119.684 88.6091C119.663 88.6173 119.644 88.6296 119.629 88.6455C119.613 88.6613 119.6 88.6802 119.592 88.701C119.584 88.7219 119.58 88.7442 119.581 88.7665C119.581 88.8112 119.599 88.8541 119.631 88.8857C119.662 88.9173 119.705 88.9351 119.75 88.9351C119.959 88.9529 120.162 89.02 120.341 89.1309C120.52 89.2417 120.67 89.3933 120.779 89.5732C120.798 89.595 120.823 89.6114 120.85 89.6209C120.878 89.6304 120.907 89.6326 120.936 89.6274Z" fill="#263238"/>
    <path d="M115.12 89.0856C115.148 89.088 115.176 89.0838 115.203 89.0733C115.229 89.0629 115.252 89.0465 115.271 89.0254C115.404 88.8615 115.575 88.7317 115.769 88.6469C115.962 88.5621 116.173 88.5247 116.384 88.5378C116.428 88.5429 116.472 88.5307 116.507 88.5037C116.542 88.4766 116.565 88.437 116.571 88.3933C116.574 88.3711 116.573 88.3485 116.568 88.3268C116.562 88.305 116.553 88.2846 116.539 88.2666C116.526 88.2487 116.509 88.2336 116.49 88.2223C116.47 88.211 116.449 88.2036 116.427 88.2007C116.161 88.1816 115.894 88.2263 115.649 88.331C115.404 88.4357 115.188 88.5974 115.018 88.8027C115.002 88.8184 114.989 88.8371 114.98 88.8578C114.972 88.8784 114.967 88.9006 114.967 88.9231C114.967 88.9455 114.972 88.9677 114.98 88.9884C114.989 89.009 115.002 89.0278 115.018 89.0435C115.047 89.0666 115.083 89.0812 115.12 89.0856Z" fill="#263238"/>
    <path d="M91.0886 211.569C91.3644 211.718 91.6576 211.833 91.9615 211.912C91.9738 211.92 91.9885 211.925 92.0036 211.925C92.0187 211.925 92.0335 211.92 92.0458 211.912C92.0542 211.897 92.0587 211.88 92.0587 211.863C92.0587 211.847 92.0542 211.83 92.0458 211.815C91.9735 211.683 91.3234 210.503 90.8779 210.485C90.829 210.484 90.7808 210.497 90.7384 210.521C90.696 210.545 90.661 210.581 90.6371 210.623C90.5875 210.69 90.5555 210.768 90.5439 210.85C90.5323 210.932 90.5416 211.015 90.5709 211.093C90.6865 211.304 90.8685 211.471 91.0886 211.569ZM91.805 211.689C91.203 211.496 90.8297 211.249 90.7394 211.015C90.7196 210.961 90.7136 210.903 90.7221 210.846C90.7305 210.789 90.753 210.735 90.7876 210.69C90.7965 210.672 90.8102 210.656 90.8272 210.646C90.8442 210.635 90.8639 210.63 90.8839 210.629C91.1127 210.641 91.5341 211.225 91.805 211.689Z" fill="#336699"/>
    <path d="M91.9433 211.906H91.9854C92.0009 211.906 92.016 211.901 92.0288 211.892C92.0417 211.884 92.0517 211.872 92.0576 211.857C92.0576 211.815 92.5091 210.882 92.3165 210.389C92.295 210.327 92.2608 210.271 92.2163 210.223C92.1717 210.175 92.1177 210.137 92.0576 210.112C92.0017 210.083 91.9379 210.073 91.876 210.084C91.8141 210.095 91.7574 210.126 91.7145 210.172C91.4557 210.485 91.7145 211.508 91.9132 211.863C91.9176 211.881 91.9284 211.896 91.9433 211.906ZM92.0275 210.298C92.0897 210.335 92.1367 210.393 92.16 210.461C92.2164 210.862 92.1514 211.271 91.9734 211.635C91.7928 211.213 91.6904 210.479 91.8469 210.298C91.8469 210.298 91.8891 210.238 91.9914 210.298H92.0275Z" fill="#336699"/>
    <path d="M113.645 213.946C113.66 213.943 113.674 213.934 113.683 213.922C113.693 213.91 113.699 213.896 113.7 213.88C113.704 213.863 113.702 213.846 113.694 213.83C113.686 213.815 113.673 213.803 113.658 213.796C113.501 213.706 112.08 212.959 111.647 213.194C111.606 213.216 111.571 213.248 111.546 213.287C111.521 213.326 111.506 213.37 111.502 213.417C111.493 213.493 111.502 213.57 111.529 213.642C111.555 213.714 111.597 213.779 111.653 213.832C112.038 214.181 113.062 214.055 113.633 213.952L113.645 213.946ZM111.755 213.344C112.321 213.376 112.871 213.545 113.357 213.838C112.83 213.992 112.265 213.949 111.767 213.718C111.731 213.683 111.703 213.641 111.686 213.594C111.669 213.547 111.664 213.496 111.671 213.447C111.67 213.428 111.675 213.41 111.685 213.394C111.694 213.378 111.708 213.365 111.725 213.356L111.755 213.344Z" fill="#336699"/>
    <path d="M113.645 213.946C113.657 213.937 113.666 213.925 113.673 213.912C113.679 213.898 113.682 213.883 113.682 213.868C113.652 213.364 113.465 212.882 113.146 212.49C113.083 212.434 113.01 212.391 112.93 212.365C112.85 212.339 112.766 212.33 112.682 212.339C112.453 212.339 112.381 212.472 112.369 212.568C112.297 212.971 113.134 213.772 113.573 213.952C113.597 213.959 113.623 213.957 113.645 213.946ZM112.634 212.514H112.724C112.785 212.507 112.846 212.514 112.904 212.532C112.962 212.551 113.016 212.582 113.061 212.622C113.325 212.935 113.483 213.322 113.513 213.73C113.079 213.459 112.514 212.845 112.556 212.604C112.558 212.583 112.566 212.562 112.58 212.546C112.594 212.53 112.613 212.519 112.634 212.514Z" fill="#336699"/>
    <path d="M131.711 106.453C132.494 107.91 133.168 109.349 133.867 110.812C134.565 112.275 135.173 113.768 135.787 115.273C136.401 116.778 136.955 118.283 137.467 119.896L137.834 121.1L138.159 122.304C138.267 122.713 138.351 123.147 138.448 123.562L138.52 123.887L138.586 124.321C138.626 124.584 138.652 124.849 138.665 125.115C138.702 126.026 138.663 126.938 138.55 127.842C138.454 128.697 138.333 129.522 138.189 130.335C137.894 131.96 137.533 133.543 137.129 135.109C136.327 138.226 135.364 141.3 134.246 144.319L131.675 143.609C132.211 140.527 132.729 137.402 133.186 134.326C133.409 132.791 133.614 131.256 133.752 129.739C133.824 128.986 133.879 128.24 133.903 127.511C133.935 126.839 133.917 126.165 133.849 125.495C133.849 125.368 133.818 125.2 133.788 125.115L133.752 124.959L133.68 124.706C133.572 124.363 133.487 124.02 133.367 123.671L133.012 122.623L132.62 121.57C132.085 120.155 131.483 118.746 130.875 117.356C130.267 115.965 129.592 114.538 128.924 113.142C128.256 111.745 127.57 110.324 126.907 108.964L131.711 106.453Z" fill="#FF8B7B"/>
    <path d="M130.827 104.31C133.379 105.105 136.756 115.688 138.093 120.191C138.941 120.955 138.514 122.352 138.514 122.352L133.319 124.646C132.115 124.044 131.368 122.786 131.82 122.165C129.099 117.03 126.962 113.19 125.932 110.125C124.409 105.586 126.901 103.052 130.827 104.31Z" fill="#336699"/>
    <path d="M132.049 123.388C131.525 123.701 133.132 125.35 133.65 125.832C134.168 126.313 135.895 125.055 136.973 124.742C138.051 124.429 139.11 125.236 139.339 124.104C139.465 123.502 139.339 121.78 138.923 121.419C137.942 120.588 133.313 122.641 132.049 123.388Z" fill="#263238"/>
    <path d="M132.35 142.092L129.574 144.403L133.03 146.896C133.03 146.896 135.299 144.488 134.282 143.055L132.35 142.092Z" fill="#FF8B7B"/>
    <path d="M127.991 147.636L131.41 149.298L133.03 146.896L129.574 144.403L127.991 147.636Z" fill="#FF8B7B"/>
    </svg>
